<svg xmlns="http://www.w3.org/2000/svg" viewBox="0 0 1600 1200" role="img" aria-labelledby="title desc">
  <title id="title">Industrial warehouse storage racks</title>
  <desc id="desc">A neutral architectural illustration reserved for approved warehouse photography.</desc>
  <defs>
    <linearGradient id="bg" x1="0" y1="0" x2="1" y2="1">
      <stop offset="0" stop-color="#282828"/>
      <stop offset="1" stop-color="#090909"/>
    </linearGradient>
    <linearGradient id="floor" x1="0" y1="0" x2="0" y2="1">
      <stop offset="0" stop-color="#323232"/>
      <stop offset="1" stop-color="#111111"/>
    </linearGradient>
    <linearGradient id="gold" x1="0" y1="0" x2="1" y2="0">
      <stop offset="0" stop-color="#a56d08"/>
      <stop offset="0.5" stop-color="#f2b827"/>
      <stop offset="1" stop-color="#805405"/>
    </linearGradient>
    <filter id="shadow" x="-30%" y="-30%" width="160%" height="160%">
      <feDropShadow dx="0" dy="18" stdDeviation="18" flood-color="#000" flood-opacity=".45"/>
    </filter>
  </defs>
  <rect width="1600" height="1200" fill="url(#bg)"/>
  <path d="M0 770 800 545l800 225v430H0Z" fill="url(#floor)"/>
  <g opacity=".13" stroke="#fff">
    <path d="M0 170h1600M0 310h1600M0 450h1600M0 590h1600"/>
    <path d="M175 0v690M400 0v625M625 0v565M975 0v565M1200 0v625M1425 0v690"/>
  </g>
  <g filter="url(#shadow)">
    <g transform="translate(90 280)">
      <path d="M0 0h470v645H0z" fill="#151515" stroke="#747474" stroke-width="7"/>
      <path d="M38 0v645M432 0v645" stroke="url(#gold)" stroke-width="16"/>
      <g stroke="#d39a1c" stroke-width="11">
        <path d="M28 145h414M28 290h414M28 435h414M28 580h414"/>
      </g>
      <g fill="#5b5b5b">
        <path d="M58 42h150v87H58zM225 42h175v87H225z"/>
        <path d="M58 182h183v92H58zM257 182h143v92H257z"/>
        <path d="M58 327h132v92H58zM206 327h194v92H206z"/>
        <path d="M58 472h174v92H58zM248 472h152v92H248z"/>
      </g>
    </g>
    <g transform="translate(1040 280)">
      <path d="M0 0h470v645H0z" fill="#151515" stroke="#747474" stroke-width="7"/>
      <path d="M38 0v645M432 0v645" stroke="url(#gold)" stroke-width="16"/>
      <g stroke="#d39a1c" stroke-width="11">
        <path d="M28 145h414M28 290h414M28 435h414M28 580h414"/>
      </g>
      <g fill="#555">
        <path d="M58 42h168v87H58zM242 42h158v87H242z"/>
        <path d="M58 182h141v92H58zM215 182h185v92H215z"/>
        <path d="M58 327h190v92H58zM264 327h136v92H264z"/>
        <path d="M58 472h148v92H58zM222 472h178v92H222z"/>
      </g>
    </g>
  </g>
  <path d="M720 1200 780 545h40l60 655Z" fill="#e0a414" opacity=".38"/>
  <path d="M799 575v560" stroke="#f5c445" stroke-width="4" stroke-dasharray="26 28" opacity=".7"/>
  <rect width="1600" height="1200" fill="none" stroke="#fff" stroke-opacity=".12" stroke-width="8"/>
</svg>
